<?xml version="1.0" encoding="UTF-8" standalone="no"?>
<svg xmlns:dc="http://purl.org/dc/elements/1.1/" 
  xmlns:cc="http://creativecommons.org/ns#" 
  xmlns:rdf="http://www.w3.org/1999/02/22-rdf-syntax-ns#" 
  xmlns:svg="http://www.w3.org/2000/svg" 
  xmlns="http://www.w3.org/2000/svg" 
  xmlns:sodipodi="http://sodipodi.sourceforge.net/DTD/sodipodi-0.dtd" 
  xmlns:inkscape="http://www.inkscape.org/namespaces/inkscape" height="100px" width="100px" fill="#E67700" version="1.1" x="0px" y="0px" viewBox="0 0 100 100" enable-background="new 0 0 100 100" xml:space="preserve" id="svg4" sodipodi:docname="logo.svg" inkscape:version="0.92.4 (5da689c313, 2019-01-14)" inkscape:export-xdpi="245.75999" inkscape:export-ydpi="245.75999">
  <metadata id="metadata10">
    <rdf:RDF>
      <cc:Work rdf:about="">
        <dc:format>image/svg+xml</dc:format>
        <dc:type rdf:resource="http://purl.org/dc/dcmitype/StillImage" />
      </cc:Work>
    </rdf:RDF>
  </metadata>
  <defs id="defs8" />
  <sodipodi:namedview pagecolor="#ffffff" bordercolor="#666666" borderopacity="1" objecttolerance="10" gridtolerance="10" guidetolerance="10" inkscape:pageopacity="0" inkscape:pageshadow="2" inkscape:window-width="3840" inkscape:window-height="2066" id="namedview6" showgrid="false" inkscape:zoom="13.350176" inkscape:cx="39.672325" inkscape:cy="54.177489" inkscape:window-x="2869" inkscape:window-y="-11" inkscape:window-maximized="1" inkscape:current-layer="svg4" />
  <path d="M 49.338766,55.837586 H 46.412335 V 52.91729 H 43.491427 V 49.996999 H 40.57113 37.650222 v -2.920297 h -2.920294 -2.920295 v -2.920293 h -2.920296 -2.938702 -2.920293 v 2.920293 h -2.920294 -2.920297 v 2.920297 H 14.268842 11.348548 V 52.91729 H 8.4276368 v 2.920296 H 5.5012084 2.5809125 v 2.920297 2.920293 2.920294 2.920297 2.926429 2.932567 2.920293 2.920298 2.920291 2.9203 2.920903 h 2.9202959 2.9264284 v 2.920302 h 2.9209112 v 2.927042 h 2.920294 2.920909 v 2.920298 h 2.920297 2.920294 v 2.920289 h 2.920293 2.938702 2.920296 V 96.74749 h 2.920295 2.920294 v -2.920298 h 2.920908 2.920297 V 90.90015 h 2.920908 v -2.920302 h 2.926431 2.920295 v -2.920903 -2.9203 -2.920291 -2.920298 -2.920293 -2.932567 -2.926429 -2.920297 -2.920294 -2.920293 -2.920297 z M 25.951862,76.298671 v 2.920298 2.92029 2.920298 2.920905 2.920301 2.927044 H 23.031568 20.111274 V 90.900763 H 17.190977 14.270068 V 87.980462 H 11.349774 V 85.059557 H 8.4288655 5.5024351 V 82.139259 79.218969 76.298671 73.378374 70.44581 67.519381 64.599085 61.67879 h 2.9264304 v 2.920295 h 2.9209085 2.920294 v 2.920296 h 2.920909 v 2.926429 h 2.920297 2.920294 v 2.932564 h 2.920294 z M 49.338766,64.59847 v 2.920297 2.926429 2.932567 2.920293 2.920298 2.920291 2.9203 h -2.926431 -2.920908 v 2.920903 H 40.57113 v 2.920302 h -2.920908 -2.920294 v 2.927042 h -2.920295 -2.920296 v -2.927042 -2.920302 -2.920903 -2.9203 -2.920291 -2.920298 -2.920293 h 2.920296 v -2.932567 h 2.920295 2.920294 V 67.518767 H 40.57113 V 64.59847 h 2.920297 2.920908 v -2.920294 h 2.926431 z" id="path2" style="fill:#345a93;fill-opacity:1;stroke-width:0.214;stroke:#345a93;stroke-opacity:1;stroke-miterlimit:4;stroke-dasharray:none" inkscape:connector-curvature="0" />

  <path inkscape:connector-curvature="0" d="M 72.718914,12.006779 H 69.792483 V 9.086485 H 66.871576 V 6.1661895 H 63.95128 61.030372 V 3.2458941 H 58.11008 55.189784 V 0.3255983 H 52.269489 49.330788 46.410494 V 3.2458941 H 43.4902 40.569904 V 6.1661895 H 37.648996 34.7287 V 9.086485 h -2.920909 v 2.920294 h -2.926429 -2.920296 v 2.920297 2.920295 2.920296 2.920294 2.92643 2.932565 2.920296 2.920295 2.920294 2.920296 2.920909 h 2.920296 2.926429 V 47.06934 H 34.7287 v 2.927045 h 2.920296 2.920908 v 2.920292 h 2.920296 2.920294 v 2.920297 h 2.920294 2.938701 2.920295 v -2.920297 h 2.920296 2.920292 v -2.920292 h 2.920908 2.920296 V 47.06934 h 2.920907 v -2.920294 h 2.926431 2.920296 v -2.920909 -2.920296 -2.920294 -2.920295 -2.920296 -2.932565 -2.92643 -2.920294 -2.920296 -2.920295 -2.920297 z M 49.332016,32.467864 v 2.920295 2.920295 2.920296 2.920908 2.920293 2.927048 H 46.411721 43.491427 V 47.069951 H 40.57113 37.650222 V 44.149658 H 34.729928 V 41.22875 h -2.920909 -2.92643 V 38.308454 35.388159 32.467864 29.54757 26.615005 23.688576 20.768278 17.847983 h 2.92643 v 2.920295 h 2.920909 2.920294 v 2.920298 h 2.920908 v 2.926429 h 2.920297 2.920294 v 2.932565 h 2.920295 z M 72.718914,20.767667 v 2.920294 2.92643 2.932565 2.920296 2.920295 2.920294 2.920296 h -2.926431 -2.920907 v 2.920909 H 63.95128 V 47.06934 H 61.030372 58.11008 v 2.927045 H 55.189784 52.269489 V 47.06934 44.149046 41.228137 38.307841 35.387547 32.467252 29.546956 h 2.920295 v -2.932565 h 2.920296 2.920292 v -2.92643 h 2.920908 v -2.920294 h 2.920296 2.920907 v -2.920296 h 2.926431 z" id="path2-7-7" style="fill:#345a93;fill-opacity:1;stroke-width:0.214;stroke:#345a93;stroke-opacity:1;stroke-miterlimit:4;stroke-dasharray:none" />
  <path d="M 96.100898,55.830224 H 93.174482 V 52.909929 H 90.253568 V 49.989635 H 87.33327 84.412364 V 47.06934 h -2.920293 -2.920296 v -2.920293 h -2.920297 -2.938699 -2.920296 v 2.920293 h -2.920294 -2.920294 v 2.920295 h -2.920911 -2.920296 v 2.920294 h -2.920909 v 2.920295 H 52.26335 49.343056 v 2.920296 2.920294 2.920294 2.920297 2.926429 2.932567 2.920293 2.9203 2.92029 2.920299 2.920904 h 2.920294 2.926429 v 2.9203 h 2.920909 v 2.927043 h 2.920296 2.920911 v 2.9203 h 2.920294 2.920294 v 2.920289 h 2.920296 2.938699 2.920297 V 96.74013 h 2.920296 2.920293 v -2.9203 h 2.920906 2.920298 v -2.927043 h 2.920914 v -2.9203 h 2.926416 2.920318 v -2.920904 -2.920299 -2.92029 -2.9203 -2.920293 -2.932567 -2.926429 -2.920297 -2.920294 -2.920294 -2.920296 z M 72.714004,76.291308 v 2.9203 2.920291 2.920298 2.920904 2.920299 2.927044 H 69.793711 66.873416 V 90.8934 H 63.953119 61.03221 v -2.920299 h -2.920294 v -2.920904 h -2.920908 -2.926431 v -2.920298 -2.920291 -2.9203 -2.920294 -2.932565 -2.92643 -2.920296 -2.920295 h 2.926431 v 2.920295 h 2.920908 2.920294 v 2.920296 h 2.920909 v 2.92643 h 2.920297 2.920295 v 2.932565 h 2.920293 z m 23.386894,-11.7002 v 2.920297 2.926429 2.932567 2.920293 2.9203 2.92029 2.920299 h -2.926416 -2.920914 v 2.920904 H 87.33327 v 2.9203 h -2.920906 -2.920293 v 2.927043 h -2.920296 -2.920297 v -2.927043 -2.9203 -2.920904 -2.920299 -2.92029 -2.9203 -2.920293 h 2.920297 v -2.932567 h 2.920296 2.920293 v -2.926429 h 2.920906 v -2.920297 h 2.920298 2.920914 v -2.920294 h 2.926416 z" id="path2-9" style="fill:#345a93;fill-opacity:1;stroke-width:0.214;stroke:#345a93;stroke-opacity:1;stroke-miterlimit:4;stroke-dasharray:none" inkscape:connector-curvature="0" />
</svg>