<svg xmlns="http://www.w3.org/2000/svg" width="100" height="100"><path d="M50.598 73.586a22.989 22.989 0 1 1 22.988-22.988 23.014 23.014 0 0 1-22.988 22.988zm0-41.194a18.206 18.206 0 1 0 18.205 18.206 18.231 18.231 0 0 0-18.205-18.206z" fill="#0f0"/><path d="M79.257 91.196H21.938A11.951 11.951 0 0 1 10 79.257V21.938A11.951 11.951 0 0 1 21.938 10h57.32a11.951 11.951 0 0 1 11.938 11.938v57.32a11.951 11.951 0 0 1-11.939 11.938zM21.938 14.77a7.18 7.18 0 0 0-7.168 7.168v57.32a7.18 7.18 0 0 0 7.168 7.168h57.32a7.18 7.18 0 0 0 7.168-7.169V21.938a7.18 7.18 0 0 0-7.169-7.168z" fill="#f0f"/></svg>