<?xml version="1.0" encoding="UTF-8" standalone="no"?>
<svg
   xmlns:dc="http://purl.org/dc/elements/1.1/"
   xmlns:cc="http://creativecommons.org/ns#"
   xmlns:rdf="http://www.w3.org/1999/02/22-rdf-syntax-ns#"
   xmlns:svg="http://www.w3.org/2000/svg"
   xmlns="http://www.w3.org/2000/svg"
   xmlns:sodipodi="http://sodipodi.sourceforge.net/DTD/sodipodi-0.dtd"
   xmlns:inkscape="http://www.inkscape.org/namespaces/inkscape"
   height="100px"
   width="100px"
   fill="#E67700"
   version="1.1"
   x="0px"
   y="0px"
   viewBox="0 0 100 100"
   enable-background="new 0 0 100 100"
   xml:space="preserve"
   id="svg4"
   sodipodi:docname="noun_Box_1094738.svg"
   inkscape:version="0.92.4 (5da689c313, 2019-01-14)"
   inkscape:export-filename="C:\Users\Admin\Downloads\noun_Box_1094738.png"
   inkscape:export-xdpi="245.75999"
   inkscape:export-ydpi="245.75999"><metadata
     id="metadata10"><rdf:RDF><cc:Work
         rdf:about=""><dc:format>image/svg+xml</dc:format><dc:type
           rdf:resource="http://purl.org/dc/dcmitype/StillImage" /></cc:Work></rdf:RDF></metadata><defs
     id="defs8" /><sodipodi:namedview
     pagecolor="#ffffff"
     bordercolor="#666666"
     borderopacity="1"
     objecttolerance="10"
     gridtolerance="10"
     guidetolerance="10"
     inkscape:pageopacity="0"
     inkscape:pageshadow="2"
     inkscape:window-width="1920"
     inkscape:window-height="1001"
     id="namedview6"
     showgrid="false"
     inkscape:zoom="2.36"
     inkscape:cx="164.32427"
     inkscape:cy="15.497601"
     inkscape:window-x="-9"
     inkscape:window-y="-9"
     inkscape:window-maximized="1"
     inkscape:current-layer="svg4" /><path
     d="m 55.636728,54.712061 h -2.166986 v -2.162443 h -2.162896 v -2.16244 h -2.162443 -2.162897 v -2.162444 h -2.162442 -2.162443 v -2.162441 h -2.162443 -2.176072 -2.162441 v 2.162441 h -2.162442 -2.162444 v 2.162444 H 29.667882 27.50544 v 2.16244 h -2.162897 v 2.162443 h -2.166985 -2.162443 v 2.162444 2.162441 2.162442 2.162444 2.166984 2.17153 2.162441 2.162445 2.162439 2.162446 2.162893 h 2.162443 2.166985 v 2.162447 h 2.162897 v 2.167439 h 2.162442 2.162897 v 2.162445 h 2.162444 2.162442 v 2.162436 h 2.162441 2.176072 2.162443 v -2.162436 h 2.162443 2.162442 v -2.162445 h 2.162897 2.162443 v -2.167439 h 2.162896 V 78.51301 h 2.166986 2.162443 v -2.162893 -2.162446 -2.162439 -2.162445 -2.162441 -2.17153 -2.166984 -2.162444 -2.162442 -2.162441 -2.162444 z M 38.319015,69.863242 v 2.162445 2.162439 2.162445 2.162893 2.162447 2.16744 h -2.162442 -2.162442 v -2.16744 H 31.831688 29.66879 V 78.513464 H 27.506349 V 76.350571 H 25.343452 23.176466 V 74.188126 72.025687 69.863242 67.700799 65.529271 63.362286 61.199843 59.0374 h 2.166986 v 2.162443 h 2.162897 2.162441 v 2.162443 h 2.162898 v 2.166985 h 2.162443 2.162442 v 2.171528 h 2.162442 z m 17.317713,-8.663854 v 2.162444 2.166984 2.17153 2.162441 2.162445 2.162439 2.162446 h -2.166986 -2.162896 v 2.162893 h -2.162443 v 2.162447 h -2.162897 -2.162442 v 2.167439 H 42.656621 40.494178 V 80.675457 78.51301 76.350117 74.187671 72.025232 69.862787 67.700346 h 2.162443 v -2.17153 h 2.162443 2.162442 v -2.166984 h 2.162897 v -2.162444 h 2.162443 2.162896 v -2.162442 h 2.166986 z"
     id="path2"
     style="fill:#4285f4;fill-opacity:1;stroke-width:0.45429462"
     inkscape:connector-curvature="0" /><path
     inkscape:connector-curvature="0"
     d="M 38.323104,22.261342 H 36.156119 V 20.098899 H 33.993223 V 17.936456 H 31.830779 29.667882 V 15.774013 H 27.50544 25.342998 v -2.162442 h -2.162443 -2.176071 -2.162443 v 2.162442 h -2.162443 -2.162441 v 2.162443 h -2.162899 -2.162441 v 2.162443 H 8.0289194 v 2.162443 H 5.8619345 3.6994918 v 2.162442 2.162443 2.162442 2.162442 2.166986 2.171528 2.162444 2.162442 2.162441 2.162444 2.162897 h 2.1624427 2.1669849 v 2.162441 h 2.1628976 v 2.167441 h 2.162441 2.162899 v 2.16244 h 2.162441 2.162443 v 2.162443 h 2.162443 2.176071 2.162443 v -2.162443 h 2.162442 2.162442 v -2.16244 h 2.162897 2.162444 v -2.167441 h 2.162896 v -2.162441 h 2.166985 2.162441 V 43.899396 41.736952 39.574511 37.412069 35.249625 33.078097 30.911111 28.748669 26.586227 24.423784 22.261342 Z M 21.005391,37.412523 v 2.162442 2.162442 2.162444 2.162896 2.162442 2.16744 h -2.162442 -2.162441 v -2.16744 H 14.518064 12.355168 V 46.062747 H 10.192725 V 43.899851 H 8.0298285 5.8628429 v -2.162444 -2.162442 -2.162442 -2.162444 -2.171528 -2.166985 -2.162442 -2.162443 h 2.1669856 v 2.162443 h 2.1628965 2.162443 v 2.162442 h 2.162896 v 2.166985 h 2.162444 2.162441 v 2.171528 h 2.162442 z m 17.317713,-8.663854 v 2.162442 2.166986 2.171528 2.162444 2.162442 2.162441 2.162444 h -2.166985 -2.162896 v 2.162897 h -2.162444 v 2.162441 H 29.667882 27.50544 v 2.167441 h -2.162442 -2.162443 v -2.167441 -2.162441 -2.162897 -2.162444 -2.162441 -2.162442 -2.162444 h 2.162443 v -2.171528 h 2.162442 2.162442 v -2.166986 h 2.162897 v -2.162442 h 2.162444 2.162896 v -2.162442 h 2.166985 z"
     id="path2-7"
     style="fill:#fbbc05;fill-opacity:1;stroke-width:0.45429462" /><path
     inkscape:connector-curvature="0"
     d="m 72.94944,22.255889 h -2.166986 v -2.162442 h -2.162895 v -2.162442 h -2.162444 -2.162897 v -2.162443 h -2.16244 -2.162443 v -2.162443 h -2.162442 -2.176072 -2.162442 v 2.162443 h -2.162442 -2.162443 v 2.162443 h -2.162896 -2.162443 v 2.162442 h -2.162897 v 2.162442 H 40.488273 38.32583 v 2.162444 2.162443 2.162442 2.162442 2.166986 2.171528 2.162443 2.162442 2.162442 2.162443 2.162897 h 2.162443 2.166985 v 2.162442 h 2.162897 v 2.167441 h 2.162443 2.162896 v 2.16244 h 2.162443 2.162442 v 2.162443 h 2.162442 2.176072 2.162442 v -2.162443 h 2.162443 2.16244 v -2.16244 h 2.162897 2.162444 v -2.167441 h 2.162895 v -2.162442 h 2.166986 2.162443 V 43.893944 41.731501 39.569059 37.406617 35.244174 33.072646 30.90566 28.743218 26.580776 24.418333 22.255889 Z M 55.63173,37.40707 v 2.162443 2.162442 2.162443 2.162897 2.162441 2.167442 H 53.469288 51.306846 V 48.219736 H 49.144403 46.981506 V 46.057295 H 44.819064 V 43.894398 H 42.656167 40.489181 V 41.731955 39.569513 37.40707 35.244628 33.0731 30.906115 28.743671 26.581229 h 2.166986 v 2.162442 h 2.162897 2.162442 v 2.162444 h 2.162897 V 33.0731 h 2.162443 2.162442 v 2.171528 h 2.162442 z m 17.31771,-8.663852 v 2.162442 2.166986 2.171528 2.162443 2.162442 2.162442 2.162443 h -2.166986 -2.162895 v 2.162897 h -2.162444 v 2.162442 h -2.162897 -2.16244 v 2.167441 h -2.162443 -2.162442 v -2.167441 -2.162442 -2.162897 -2.162443 -2.162442 -2.162442 -2.162443 h 2.162442 v -2.171528 h 2.162443 2.16244 V 30.90566 h 2.162897 v -2.162442 h 2.162444 2.162895 v -2.162442 h 2.166986 z"
     id="path2-7-7"
     style="fill:#ea4335;fill-opacity:1;stroke-width:0.45429462" /><path
     d="M 90.263511,54.70661 H 88.096535 V 52.544167 H 85.933638 V 50.381726 H 83.77119 81.608296 v -2.162443 h -2.162441 -2.162444 v -2.162441 h -2.162444 -2.17607 -2.162443 v 2.162441 H 68.620012 66.45757 v 2.162443 h -2.162899 -2.162442 v 2.162441 h -2.162897 v 2.162443 h -2.166985 -2.162442 v 2.162443 2.162442 2.162442 2.162443 2.166985 2.17153 2.162441 2.162445 2.162439 2.162446 2.162893 h 2.162442 2.166985 v 2.162446 h 2.162897 v 2.16744 h 2.162442 2.162899 v 2.162445 h 2.162442 2.162442 v 2.162436 h 2.162443 2.17607 2.162444 V 84.99989 h 2.162444 2.162441 v -2.162445 h 2.162894 2.162448 v -2.16744 h 2.162897 v -2.162446 h 2.166976 2.162457 V 76.344666 74.18222 72.019781 69.857336 67.694895 65.523365 63.35638 61.193937 59.031495 56.869053 54.70661 Z M 72.945804,69.85779 v 2.162446 2.162439 2.162445 2.162893 2.162447 2.167439 H 70.783363 68.62092 V 80.67046 H 66.458477 64.29558 V 78.508013 H 62.133138 V 76.34512 H 59.970241 57.803255 V 74.182675 72.020236 69.85779 67.695348 65.52382 63.356834 61.194392 59.031949 h 2.166986 v 2.162443 h 2.162897 2.162442 v 2.162442 h 2.162897 v 2.166986 h 2.162443 2.162443 v 2.171528 h 2.162441 z m 17.317707,-8.663853 v 2.162443 2.166985 2.17153 2.162441 2.162445 2.162439 2.162446 h -2.166976 -2.162897 v 2.162893 H 83.77119 v 2.162446 h -2.162894 -2.162441 v 2.16744 h -2.162444 -2.162444 v -2.16744 -2.162446 -2.162893 -2.162446 -2.162439 -2.162445 -2.162441 h 2.162444 v -2.17153 h 2.162444 2.162441 V 63.35638 h 2.162894 v -2.162443 h 2.162448 2.162897 v -2.162442 h 2.166976 z"
     id="path2-9"
     style="fill:#34a853;fill-opacity:1;stroke-width:0.45429462"
     inkscape:connector-curvature="0" /></svg>