<?xml version="1.0" encoding="UTF-8" standalone="no"?>
<svg
   xmlns:dc="http://purl.org/dc/elements/1.1/"
   xmlns:cc="http://creativecommons.org/ns#"
   xmlns:rdf="http://www.w3.org/1999/02/22-rdf-syntax-ns#"
   xmlns:svg="http://www.w3.org/2000/svg"
   xmlns="http://www.w3.org/2000/svg"
   xmlns:sodipodi="http://sodipodi.sourceforge.net/DTD/sodipodi-0.dtd"
   xmlns:inkscape="http://www.inkscape.org/namespaces/inkscape"
   version="1.1"
   x="0px"
   y="0px"
   viewBox="0 0 74.999999 75"
   enable-background="new 0 0 100 100"
   xml:space="preserve"
   id="svg8"
   sodipodi:docname="gitlab.svg"
   inkscape:version="0.92.3 (2405546, 2018-03-11)"
   width="75"
   height="75"
   style="fill:#0073e6"
   inkscape:export-filename="E:\Repositories\cardboardci\readme\icon\gitlab.png"
   inkscape:export-xdpi="1280"
   inkscape:export-ydpi="1280"><metadata
     id="metadata14"><rdf:RDF><cc:Work
         rdf:about=""><dc:format>image/svg+xml</dc:format><dc:type
           rdf:resource="http://purl.org/dc/dcmitype/StillImage" /><dc:title /></cc:Work></rdf:RDF></metadata><defs
     id="defs12" /><sodipodi:namedview
     pagecolor="#ffffff"
     bordercolor="#666666"
     borderopacity="1"
     objecttolerance="10"
     gridtolerance="10"
     guidetolerance="10"
     inkscape:pageopacity="0"
     inkscape:pageshadow="2"
     inkscape:window-width="1920"
     inkscape:window-height="1017"
     id="namedview10"
     showgrid="false"
     inkscape:zoom="6.675088"
     inkscape:cx="24.320591"
     inkscape:cy="47.509735"
     inkscape:window-x="-8"
     inkscape:window-y="-8"
     inkscape:window-maximized="1"
     inkscape:current-layer="svg8"
     fit-margin-top="0"
     fit-margin-left="0"
     fit-margin-right="0"
     fit-margin-bottom="0" /><g
     id="g872"
     transform="matrix(0.946821,0,0,0.97580303,1.1524825,1.3316913)"><path
       d="m 57.470854,39.572083 c -2.421,0 -4.647,-0.932 -6.309,-2.599 -1.678,1.648 -3.953,2.599 -6.343,2.599 -2.426,0 -4.718,-0.987 -6.399,-2.677 -1.716,1.653 -4.177,2.677 -6.669,2.677 -2.388,0 -4.664,-0.95 -6.339,-2.599 -1.661,1.667 -3.888,2.599 -6.307,2.599 -2.255,0 -4.399,-0.847 -6.041,-2.323 -3.1249999,16.186 9.333,30.56 25.177,30.56 15.817,0 28.26,-14.327 25.19,-30.48 -1.63,1.43 -3.745,2.243 -5.96,2.243 z"
       id="path2"
       inkscape:connector-curvature="0"
       style="fill:#0073e6" /><rect
       y="34.653648"
       x="11.98486"
       height="0.97376996"
       width="52.808292"
       id="rect827"
       style="fill:#0073e6;fill-opacity:1;stroke:none;stroke-width:7.0630002;stroke-linejoin:bevel;stroke-miterlimit:4;stroke-dasharray:none;stroke-opacity:1" /><g
       transform="translate(-12.183874,-24.416985)"
       id="g1030"><path
         style="fill:#0073e6;stroke-width:1.04077911"
         id="path878"
         d="M 49.452463,30.738249 36.512456,35.847434 V 49.82926 l 15.611686,7.673664 11.448571,-7.673664 v -10e-4 -13.940195 -0.04059 z m 3.294065,10.879264 -12.669404,-4.940578 3.721826,-1.46958 12.151096,4.713688 z M 51.963863,55.103929 38.594014,48.532449 V 37.262893 l 0.05933,-0.02394 13.470803,5.252813 v 12.50496 z m 6.419525,-16.469289 -11.732703,-4.552368 2.834042,-1.118837 11.64944,4.215155 z"
         inkscape:connector-curvature="0" /><polygon
         style="fill:#0073e6"
         id="polygon884"
         points="12,20.558 12,19.321 5,16.018 5,17.254 "
         transform="matrix(1.0407791,0,0,1.0407791,36.512456,30.536338)" /><polygon
         style="fill:#0073e6"
         id="polygon884-5"
         points="5,17.254 12,20.558 12,19.321 5,16.018 "
         transform="matrix(1.0407791,0,0,1.0407791,36.293209,28.330639)" /></g></g><g
     id="g823"
     transform="matrix(0.30035474,0,0,0.30035474,2.6742367,0.69972762)"><title
       id="title817">background</title><rect
       style="fill:none"
       id="canvas_background"
       height="258"
       width="258"
       y="-1"
       x="-1" /><g
       style="display:none;overflow:visible"
       display="none"
       overflow="visible"
       y="0"
       x="0"
       height="100%"
       width="100%"
       id="canvasGrid"><rect
         style="fill:url(#gridpattern);stroke-width:0"
         y="0"
         x="0"
         height="100%"
         width="100%"
         id="rect820" /></g></g><path
     d="m 36.937013,-0.29750507 c -10.08453,0 -19.350805,3.84408157 -26.497638,10.99323107 -7.14683,7.150291 -10.98975162,16.420032 -10.98975162,26.509179 0,10.089142 3.84292162,19.358888 10.98975162,26.508034 6.001281,6.00359 13.502879,9.677152 21.990953,10.770069 3.333667,0.4303 8.443449,0.211713 12.0861,-0.513845 C 57.630205,71.355328 68.833968,61.194084 72.760432,48.352628 76.880303,34.880602 73.347515,20.61206 63.435791,10.695726 56.288959,3.5465765 47.022683,-0.29750507 36.937013,-0.29750507 Z M 36.595978,2.6436352 c 5.425642,-0.049211 10.846702,1.1798886 15.788259,3.6563992 6.771466,3.3943288 12.05291,8.6769396 15.446085,15.4518636 4.876322,9.73895 4.876322,21.167057 0,30.904868 -1.701737,3.398906 -3.397751,5.787293 -6.09741,8.593396 C 56.018881,67.188519 48.453195,70.808299 40.039503,71.631128 33.763567,72.244535 27.287359,71.01429 21.490929,68.109771 18.094325,66.406885 15.705945,64.710866 12.901,62.010052 2.0817614,51.590171 -0.70487376,35.229647 6.0448469,21.751898 10.101776,13.650597 17.071224,7.5222661 25.607366,4.5502261 29.169913,3.309684 32.884663,2.6768224 36.595978,2.6436352 Z m 0,0"
     id="svg_6"
     stroke="null"
     inkscape:connector-curvature="0"
     style="fill:#0073e6;fill-rule:nonzero;stroke-width:0.29246151;fill-opacity:1" /></svg>