<?xml version="1.0" encoding="UTF-8" standalone="no"?>
<svg
   xmlns:dc="http://purl.org/dc/elements/1.1/"
   xmlns:cc="http://creativecommons.org/ns#"
   xmlns:rdf="http://www.w3.org/1999/02/22-rdf-syntax-ns#"
   xmlns:svg="http://www.w3.org/2000/svg"
   xmlns="http://www.w3.org/2000/svg"
   xmlns:sodipodi="http://sodipodi.sourceforge.net/DTD/sodipodi-0.dtd"
   xmlns:inkscape="http://www.inkscape.org/namespaces/inkscape"
   version="1.1"
   x="0px"
   y="0px"
   viewBox="0 0 74.999999 75"
   enable-background="new 0 0 100 100"
   xml:space="preserve"
   id="svg8"
   sodipodi:docname="noun_Water_1587_0073E6.svg"
   inkscape:version="0.92.3 (2405546, 2018-03-11)"
   width="75"
   height="75"
   style="fill:#0073e6"><metadata
     id="metadata14"><rdf:RDF><cc:Work
         rdf:about=""><dc:format>image/svg+xml</dc:format><dc:type
           rdf:resource="http://purl.org/dc/dcmitype/StillImage" /><dc:title></dc:title></cc:Work></rdf:RDF></metadata><defs
     id="defs12" /><sodipodi:namedview
     pagecolor="#ffffff"
     bordercolor="#666666"
     borderopacity="1"
     objecttolerance="10"
     gridtolerance="10"
     guidetolerance="10"
     inkscape:pageopacity="0"
     inkscape:pageshadow="2"
     inkscape:window-width="1920"
     inkscape:window-height="1017"
     id="namedview10"
     showgrid="false"
     inkscape:zoom="6.675088"
     inkscape:cx="39.858464"
     inkscape:cy="33.983461"
     inkscape:window-x="-8"
     inkscape:window-y="-8"
     inkscape:window-maximized="1"
     inkscape:current-layer="svg8"
     fit-margin-top="0"
     fit-margin-left="0"
     fit-margin-right="0"
     fit-margin-bottom="0" /><path
     style="fill:#0073e6"
     inkscape:connector-curvature="0"
     id="path2"
     d="m 57.470854,39.572083 c -2.421,0 -4.647,-0.932 -6.309,-2.599 -1.678,1.648 -3.953,2.599 -6.343,2.599 -2.426,0 -4.718,-0.987 -6.399,-2.677 -1.716,1.653 -4.177,2.677 -6.669,2.677 -2.388,0 -4.664,-0.95 -6.339,-2.599 -1.661,1.667 -3.888,2.599 -6.307,2.599 -2.255,0 -4.399,-0.847 -6.041,-2.323 -3.1249999,16.186 9.333,30.56 25.177,30.56 15.817,0 28.26,-14.327 25.19,-30.48 -1.63,1.43 -3.745,2.243 -5.96,2.243 z" /><rect
     style="fill:#0073e6;fill-opacity:1;stroke:none;stroke-width:7.0630002;stroke-linejoin:bevel;stroke-miterlimit:4;stroke-dasharray:none;stroke-opacity:1"
     id="rect827"
     width="52.808292"
     height="0.97376996"
     x="11.98486"
     y="34.653648" /><g
     id="g1030"
     transform="translate(-12.183874,-24.416985)"><path
       inkscape:connector-curvature="0"
       d="M 49.452463,30.738249 36.512456,35.847434 V 49.82926 l 15.611686,7.673664 11.448571,-7.673664 v -10e-4 -13.940195 -0.04059 z m 3.294065,10.879264 -12.669404,-4.940578 3.721826,-1.46958 12.151096,4.713688 z M 51.963863,55.103929 38.594014,48.532449 V 37.262893 l 0.05933,-0.02394 13.470803,5.252813 v 12.50496 z m 6.419525,-16.469289 -11.732703,-4.552368 2.834042,-1.118837 11.64944,4.215155 z"
       id="path878"
       style="fill:#0073e6;stroke-width:1.04077911" /><polygon
       transform="matrix(1.0407791,0,0,1.0407791,36.512456,30.536338)"
       points="12,19.321 5,16.018 5,17.254 12,20.558 "
       id="polygon884"
       style="fill:#0073e6" /><polygon
       transform="matrix(1.0407791,0,0,1.0407791,36.293209,28.330639)"
       points="12,20.558 12,19.321 5,16.018 5,17.254 "
       id="polygon884-5"
       style="fill:#0073e6" /></g></svg>