<?xml version="1.0" encoding="UTF-8" standalone="no"?>
<svg
   xmlns:dc="http://purl.org/dc/elements/1.1/"
   xmlns:cc="http://creativecommons.org/ns#"
   xmlns:rdf="http://www.w3.org/1999/02/22-rdf-syntax-ns#"
   xmlns:svg="http://www.w3.org/2000/svg"
   xmlns="http://www.w3.org/2000/svg"
   xmlns:sodipodi="http://sodipodi.sourceforge.net/DTD/sodipodi-0.dtd"
   xmlns:inkscape="http://www.inkscape.org/namespaces/inkscape"
   version="1.1"
   x="0px"
   y="0px"
   viewBox="0 0 74.999999 75"
   enable-background="new 0 0 100 100"
   xml:space="preserve"
   id="svg8"
   sodipodi:docname="logo.svg"
   inkscape:version="0.92.3 (2405546, 2018-03-11)"
   width="75"
   height="75"
   style="fill:#0073e6">
  <metadata
   id="metadata14">
    <rdf:RDF>
      <cc:Work
   rdf:about="">
        <dc:format>image/svg+xml</dc:format>
        <dc:type
   rdf:resource="http://purl.org/dc/dcmitype/StillImage" />
        <dc:title />
      </cc:Work>
    </rdf:RDF>
  </metadata>
  <defs
   id="defs12" />
  <sodipodi:namedview
   pagecolor="#ffffff"
   bordercolor="#666666"
   borderopacity="1"
   objecttolerance="10"
   gridtolerance="10"
   guidetolerance="10"
   inkscape:pageopacity="0"
   inkscape:pageshadow="2"
   inkscape:window-width="1920"
   inkscape:window-height="1017"
   id="namedview10"
   showgrid="false"
   inkscape:zoom="4.72"
   inkscape:cx="-12.901529"
   inkscape:cy="26.665179"
   inkscape:window-x="-8"
   inkscape:window-y="-8"
   inkscape:window-maximized="1"
   inkscape:current-layer="svg8"
   fit-margin-top="0"
   fit-margin-left="0"
   fit-margin-right="0"
   fit-margin-bottom="0" />
  
  
  
<g
   id="g898"><path
     d="m 56.122557,33.579653 c -2.421,0 -4.647,-0.932 -6.309,-2.599 -1.678,1.648 -3.953,2.599 -6.343,2.599 -2.426,0 -4.718,-0.987 -6.399,-2.677 -1.716,1.653 -4.177,2.677 -6.669,2.677 -2.388,0 -4.664,-0.95 -6.339,-2.599 -1.661,1.667 -3.888,2.599 -6.307,2.599 -2.255,0 -4.399,-0.847 -6.041,-2.323 -3.1249997,16.186 9.333,30.56 25.177,30.56 15.817,0 28.26,-14.327 25.19,-30.48 -1.63,1.43 -3.745,2.243 -5.96,2.243 z"
     id="path2"
     inkscape:connector-curvature="0"
     style="fill:#0073e6" /><g
     transform="matrix(0.71682113,0,0,0.71682113,53.236478,-6.9543275)"
     id="g892"><path
       id="path835"
       d="m -3.271235,63.478187 h -39 c -0.552,0 -1,-0.447 -1,-1 v -27 c 0,-0.552 0.448,-1 1,-1 h 39 c 0.553,0 1,0.448 1,1 v 27 c 0,0.553 -0.447,1 -1,1 z m -38,-2 h 37 v -25 h -37 z"
       inkscape:connector-curvature="0"
       style="fill:#0073e6" /><path
       id="path851"
       d="m -10.591235,49.478187 h -24.671 c -0.186,0 -0.356,-0.103 -0.442,-0.268 l -6.973,-13.268 c -0.129,-0.244 -0.035,-0.546 0.21,-0.675 0.244,-0.129 0.547,-0.035 0.675,0.21 l 6.833,13 h 24.068 l 6.831,-12.805 c 0.131,-0.244 0.434,-0.333 0.677,-0.206 0.243,0.13 0.336,0.433 0.206,0.676 l -6.973,13.07 c -0.087,0.164 -0.257,0.266 -0.441,0.266 z"
       inkscape:connector-curvature="0"
       style="fill:#0073e6" /></g></g></svg>